<?xml version="1.0" encoding="utf-8"?>
<!-- Generator: Fusion 360, Shaper Origin Export Add-In, Version 1.5.0  -->
<svg enable-background="new 0 0 12.3268445 2" height="2cm" shaper:fusionaddin="version:1.5.0" version="1.1" viewBox="0 0 12.3268445 2" width="12.3268445cm" x="0cm" xml:space="preserve" xmlns="http://www.w3.org/2000/svg" xmlns:shaper="http://www.shapertools.com/namespaces/shaper" xmlns:xlink="http://www.w3.org/1999/xlink" y="0cm"><path d="M11.3509784,0.5064227 L11.904845,0.8834263 A0.23,0.23 304.2421687 0,1 11.9655592,1.2029788 L11.5524654,1.8098667 A0.23,0.23 34.2421687 0,1 11.2329129,1.8705809 L10.6790463,1.4935773 10.3343366,2 1.3613515,2 1.0166418,1.4935773 0.4379751,1.8874616 A0.2,0.2 55.7578313 0,1 0.1601034,1.8346667 L-0.2867519,1.1781788 A0.2,0.2 145.7578313 0,1 -0.233957,0.9003071 L0.3447097,0.5064227 0,0 11.6956881,0 11.3509784,0.5064227z" fill="rgb(0,0,0)" shaper:cutDepth="0.009" shaper:pathType="exterior" transform="matrix(1,0,0,-1,0.3214186,2)" vector-effect="non-scaling-stroke" /></svg>