<?xml version="1.0" encoding="utf-8"?>
<!-- Generator: Fusion 360, Shaper Origin Export Add-In, Version 1.5.0  -->
<svg enable-background="new 0 0 40.0894958 18.3679062" height="18.3679062cm" shaper:fusionaddin="version:1.5.0" version="1.1" viewBox="0 0 40.0894958 18.3679062" width="40.0894958cm" x="0cm" xml:space="preserve" xmlns="http://www.w3.org/2000/svg" xmlns:shaper="http://www.shapertools.com/namespaces/shaper" xmlns:xlink="http://www.w3.org/1999/xlink" y="0cm"><path d="M1.0142947,2.0835757 L0.6969901,3.0318994 A0.4,0.4 18.5 0,1 0.1907387,3.284307 L-0.5070412,3.0508331 A0.4,0.4 108.5 0,1 -0.7746336,2.6054846 L-0.3945142,0.333981 A0.4,0.4 189.5 0,1 0,-0 L38.9093764,0 A0.4,0.4 270 0,1 39.3093764,0.4 L39.3093764,17.9679062 A0.4,0.4 0 0,1 38.6952513,18.3057677 L37.3346122,17.4434409 A0.5,0.5 122.3651334 0,1 37.1041713,17.0646919 L35.7861816,2 32.4861816,2 33.5283054,13.9115294 A0.4,0.4 355 0,1 32.9157023,14.2842533 L31.3944064,13.3201076 A0.4,0.4 122.3651334 0,1 31.2100537,13.0171084 L30.2461816,2 26.9461816,2 27.680452,10.3927494 A0.3999999,0.3999999 355 0,1 27.1553554,10.8070423 L14.2472566,6.4995136 14.2472566,2 12.9250411,2 12.9250411,6.0582805 1.0142947,2.0835757z" fill="rgb(0,0,0)" shaper:cutDepth="0.009" shaper:pathType="exterior" transform="matrix(1,0,0,-1,0.7801193,18.3679062)" vector-effect="non-scaling-stroke" /><path d="M24.0272693,0.55 L24.0272693,1.45 22.8331308,1.45 22.8331308,0.55 24.0272693,0.55z" fill="rgb(255,255,255)" shaper:cutDepth="0.009" shaper:pathType="interior" stroke="rgb(0,0,0)" transform="matrix(1,0,0,-1,0.7801193,18.3679062)" vector-effect="non-scaling-stroke" /><path d="M25.2291734,8.6356552 L15.6573283,5.4414592 A0.6,0.6 108.4542383 0,1 15.2472566,4.8723132 L15.2472566,2.6 A0.6,0.6 180 0,1 15.8472566,2 L24.9408441,2 A0.6,0.6 270 0,1 25.5385609,2.5477066 L26.0168185,8.0142157 A0.6,0.6 355 0,1 25.2291734,8.6356552z" fill="rgb(255,255,255)" shaper:cutDepth="0.009" shaper:pathType="interior" stroke="rgb(0,0,0)" transform="matrix(1,0,0,-1,0.7801193,18.3679062)" vector-effect="non-scaling-stroke" /><path d="M9.0379595,2 L11.3250411,2 A0.6,0.6 270 0,1 11.9250411,2.6 L11.9250411,3.3632162 A0.6,0.6 0 0,1 11.1351129,3.9323622 L8.8480312,3.1691461 A0.6,0.6 108.4542383 0,1 9.0379595,2z" fill="rgb(255,255,255)" shaper:cutDepth="0.009" shaper:pathType="interior" stroke="rgb(0,0,0)" transform="matrix(1,0,0,-1,0.7801193,18.3679062)" vector-effect="non-scaling-stroke" /><path d="M36.8143627,4.994778 L38.5156805,4.994778 38.5156805,7.094778 36.8143627,7.094778 36.8143627,4.994778z" fill="rgb(255,255,255)" shaper:cutDepth="0.009" shaper:pathType="interior" stroke="rgb(0,0,0)" transform="matrix(1,0,0,-1,0.7801193,18.3679062)" vector-effect="non-scaling-stroke" /></svg>