<?xml version="1.0" encoding="utf-8"?>
<!-- Generator: Fusion 360, Shaper Origin Export Add-In, Version 1.5.0  -->
<svg enable-background="new 0 0 29.7996208 2.9910695" height="2.9910695cm" shaper:fusionaddin="version:1.5.0" version="1.1" viewBox="0 0 29.7996208 2.9910695" width="29.7996208cm" x="0cm" xml:space="preserve" xmlns="http://www.w3.org/2000/svg" xmlns:shaper="http://www.shapertools.com/namespaces/shaper" xmlns:xlink="http://www.w3.org/1999/xlink" y="0cm"><path d="M1.7007659,2.9863259 L27.097423,2.9910196 27.097791,1 28.7992937,1 28.7992937,2 29.0692937,2 A0.23,0.23 90 0,0 29.2992937,1.77 L29.2992937,0.23 A0.23,0.23 0 0,0 29.0692937,-0 L-0,-0 -0.27,-0.0000499 A0.23,0.23 270.0105902 0,0 -0.5000425,0.2299076 L-0.5003271,1.7699076 A0.23,0.23 180.0105892 0,0 -0.2703696,1.9999501 L-0.0003696,2 -0.0001848,1 1.701133,1.0003145 1.7007659,2.9863259z" fill="rgb(0,0,0)" shaper:cutDepth="0.009" shaper:pathType="exterior" transform="matrix(1,0,0,-1,0.5003271,2.9910196)" vector-effect="non-scaling-stroke" /><path d="M8.1992773,1.9989095 a0.3,0.3 0 1,1 0.6,0 a0.3,0.3 0 1,1 -0.6,0z" fill="rgb(255,255,255)" shaper:cutDepth="0.009" shaper:pathType="interior" stroke="rgb(0,0,0)" transform="matrix(1,0,0,-1,0.5003271,2.9910196)" vector-effect="non-scaling-stroke" /><path d="M24.399277,2.0019036 a0.3,0.3 0 1,1 0.6,0 a0.3,0.3 0 1,1 -0.6,0z" fill="rgb(255,255,255)" shaper:cutDepth="0.009" shaper:pathType="interior" stroke="rgb(0,0,0)" transform="matrix(1,0,0,-1,0.5003271,2.9910196)" vector-effect="non-scaling-stroke" /><path d="M10.3994621,0.9993162 a0.3,0.3 0 1,1 0.6,0 a0.3,0.3 0 1,1 -0.6,0z" fill="rgb(255,255,255)" shaper:cutDepth="0.009" shaper:pathType="interior" stroke="rgb(0,0,0)" transform="matrix(1,0,0,-1,0.5003271,2.9910196)" vector-effect="non-scaling-stroke" /><path d="M15.5992772,2.0002772 a0.3,0.3 0 1,1 0.6,0 a0.3,0.3 0 1,1 -0.6,0z" fill="rgb(255,255,255)" shaper:cutDepth="0.009" shaper:pathType="interior" stroke="rgb(0,0,0)" transform="matrix(1,0,0,-1,0.5003271,2.9910196)" vector-effect="non-scaling-stroke" /><path d="M8.9994621,0.9990574 a0.3,0.3 0 1,1 0.6,0 a0.3,0.3 0 1,1 -0.6,0z" fill="rgb(255,255,255)" shaper:cutDepth="0.009" shaper:pathType="interior" stroke="rgb(0,0,0)" transform="matrix(1,0,0,-1,0.5003271,2.9910196)" vector-effect="non-scaling-stroke" /><path d="M16.9992772,2.0005359 a0.3,0.3 0 1,1 0.6,0 a0.3,0.3 0 1,1 -0.6,0z" fill="rgb(255,255,255)" shaper:cutDepth="0.009" shaper:pathType="interior" stroke="rgb(0,0,0)" transform="matrix(1,0,0,-1,0.5003271,2.9910196)" vector-effect="non-scaling-stroke" /><path d="M22.1994619,1.001497 a0.3,0.3 0 1,1 0.6,0 a0.3,0.3 0 1,1 -0.6,0z" fill="rgb(255,255,255)" shaper:cutDepth="0.009" shaper:pathType="interior" stroke="rgb(0,0,0)" transform="matrix(1,0,0,-1,0.5003271,2.9910196)" vector-effect="non-scaling-stroke" /><path d="M13.399462,0.9998706 a0.3,0.3 0 1,1 0.6,0 a0.3,0.3 0 1,1 -0.6,0z" fill="rgb(255,255,255)" shaper:cutDepth="0.009" shaper:pathType="interior" stroke="rgb(0,0,0)" transform="matrix(1,0,0,-1,0.5003271,2.9910196)" vector-effect="non-scaling-stroke" /><path d="M17.799462,1.0006838 a0.3,0.3 0 1,1 0.6,0 a0.3,0.3 0 1,1 -0.6,0z" fill="rgb(255,255,255)" shaper:cutDepth="0.009" shaper:pathType="interior" stroke="rgb(0,0,0)" transform="matrix(1,0,0,-1,0.5003271,2.9910196)" vector-effect="non-scaling-stroke" /><path d="M19.1994619,1.0009425 a0.3,0.3 0 1,1 0.6,0 a0.3,0.3 0 1,1 -0.6,0z" fill="rgb(255,255,255)" shaper:cutDepth="0.009" shaper:pathType="interior" stroke="rgb(0,0,0)" transform="matrix(1,0,0,-1,0.5003271,2.9910196)" vector-effect="non-scaling-stroke" /><path d="M6.7992773,1.9986508 a0.3,0.3 0 1,1 0.6,0 a0.3,0.3 0 1,1 -0.6,0z" fill="rgb(255,255,255)" shaper:cutDepth="0.009" shaper:pathType="interior" stroke="rgb(0,0,0)" transform="matrix(1,0,0,-1,0.5003271,2.9910196)" vector-effect="non-scaling-stroke" /><path d="M5.9994622,0.998503 a0.3,0.3 0 1,1 0.6,0 a0.3,0.3 0 1,1 -0.6,0z" fill="rgb(255,255,255)" shaper:cutDepth="0.009" shaper:pathType="interior" stroke="rgb(0,0,0)" transform="matrix(1,0,0,-1,0.5003271,2.9910196)" vector-effect="non-scaling-stroke" /><path d="M11.1992773,1.999464 a0.3,0.3 0 1,1 0.6,0 a0.3,0.3 0 1,1 -0.6,0z" fill="rgb(255,255,255)" shaper:cutDepth="0.009" shaper:pathType="interior" stroke="rgb(0,0,0)" transform="matrix(1,0,0,-1,0.5003271,2.9910196)" vector-effect="non-scaling-stroke" /><path d="M12.5992772,1.9997227 a0.3,0.3 0 1,1 0.6,0 a0.3,0.3 0 1,1 -0.6,0z" fill="rgb(255,255,255)" shaper:cutDepth="0.009" shaper:pathType="interior" stroke="rgb(0,0,0)" transform="matrix(1,0,0,-1,0.5003271,2.9910196)" vector-effect="non-scaling-stroke" /><path d="M3.7992774,1.9980964 a0.3,0.3 0 1,1 0.6,0 a0.3,0.3 0 1,1 -0.6,0z" fill="rgb(255,255,255)" shaper:cutDepth="0.009" shaper:pathType="interior" stroke="rgb(0,0,0)" transform="matrix(1,0,0,-1,0.5003271,2.9910196)" vector-effect="non-scaling-stroke" /><path d="M21.3992771,2.0013491 a0.3,0.3 0 1,1 0.6,0 a0.3,0.3 0 1,1 -0.6,0z" fill="rgb(255,255,255)" shaper:cutDepth="0.009" shaper:pathType="interior" stroke="rgb(0,0,0)" transform="matrix(1,0,0,-1,0.5003271,2.9910196)" vector-effect="non-scaling-stroke" /><path d="M14.799462,1.0001294 a0.3,0.3 0 1,1 0.6,0 a0.3,0.3 0 1,1 -0.6,0z" fill="rgb(255,255,255)" shaper:cutDepth="0.009" shaper:pathType="interior" stroke="rgb(0,0,0)" transform="matrix(1,0,0,-1,0.5003271,2.9910196)" vector-effect="non-scaling-stroke" /><path d="M19.9992771,2.0010904 a0.3,0.3 0 1,1 0.6,0 a0.3,0.3 0 1,1 -0.6,0z" fill="rgb(255,255,255)" shaper:cutDepth="0.009" shaper:pathType="interior" stroke="rgb(0,0,0)" transform="matrix(1,0,0,-1,0.5003271,2.9910196)" vector-effect="non-scaling-stroke" /></svg>