<?xml version="1.0" encoding="utf-8"?>
<!-- Generator: Fusion 360, Shaper Origin Export Add-In, Version 1.5.0  -->
<svg enable-background="new 0 0 43.2700558 17.4658695" height="17.4658695cm" shaper:fusionaddin="version:1.5.0" version="1.1" viewBox="0 0 43.2700558 17.4658695" width="43.2700558cm" x="0cm" xml:space="preserve" xmlns="http://www.w3.org/2000/svg" xmlns:shaper="http://www.shapertools.com/namespaces/shaper" xmlns:xlink="http://www.w3.org/1999/xlink" y="0cm"><path d="M-2.2688539,10.0416136 L-7.0278818,-0.9273508 A0.4,0.4 156.5457618 0,1 -6.5647739,-1.4748278 L-4.8165301,-1.0418689 A0.4,0.4 283.909645 0,1 -4.5457353,-0.8128051 L-0.1440419,9.332548 2.9862614,8.2879425 -0.3669512,0.5592064 A0.3999999,0.3999999 156.5457618 0,1 -0,-0 L27.5581916,0 27.5589903,-0.9999997 A0.4,0.4 180.0457618 0,1 27.9593096,-1.3996801 L28.695113,-1.3990924 A0.4,0.4 270.0457618 0,1 29.0899187,-1.0613507 L29.4483843,1.2136705 A0.4,0.4 351.0457618 0,1 29.1798779,1.6553595 L16.919484,5.7467442 16.2863897,3.8495906 15.0321668,4.2681342 15.6652611,6.1652877 -7.7286532,13.9720111 A0.4,0.4 71.5457618 0,1 -8.2347028,13.7191992 L-13.7962275,-2.9466702 A0.4,0.4 161.5457618 0,1 -13.3206402,-3.4615595 L-11.757175,-3.0743617 A0.5,0.5 283.909645 0,1 -11.4186816,-2.7880319 L-5.3991573,11.0862191 -2.2688539,10.0416136z" fill="rgb(0,0,0)" shaper:cutDepth="0.009" shaper:pathType="exterior" transform="matrix(1,0,0,-1,13.8167968,13.9925804)" vector-effect="non-scaling-stroke" /><path d="M6.2140672,8.7394055 L5.9291748,7.8856864 7.0619068,7.5076853 7.3467992,8.3614044 6.2140672,8.7394055z" fill="rgb(255,255,255)" shaper:cutDepth="0.009" shaper:pathType="interior" stroke="rgb(0,0,0)" transform="matrix(1,0,0,-1,13.8167968,13.9925804)" vector-effect="non-scaling-stroke" /><path d="M4.1392538,7.3023805 L1.9640509,2.2888099 A0.6,0.6 156.5457617 0,1 2.5144779,1.45 L12.6052215,1.45 A0.6,0.6 270.0000002 0,1 13.1743675,1.8600717 L13.8932264,4.0142308 A0.6,0.6 341.5457618 0,1 13.5127052,4.7737384 L4.8783055,7.63315 A0.6,0.6 71.6769328 0,1 4.1392538,7.3023805z" fill="rgb(255,255,255)" shaper:cutDepth="0.009" shaper:pathType="interior" stroke="rgb(0,0,0)" transform="matrix(1,0,0,-1,13.8167968,13.9925804)" vector-effect="non-scaling-stroke" /><path d="M17.3725904,1.45 L19.7836569,1.45 A0.6,0.6 270.0000002 0,1 19.9735851,2.6191461 L17.8041126,3.3431152 A0.6,0.6 71.5457618 0,1 17.0450382,2.9638974 L16.8034443,2.2399283 A0.6,0.6 161.5457618 0,1 17.3725904,1.45z" fill="rgb(255,255,255)" shaper:cutDepth="0.009" shaper:pathType="interior" stroke="rgb(0,0,0)" transform="matrix(1,0,0,-1,13.8167968,13.9925804)" vector-effect="non-scaling-stroke" /><path d="M-7.9888883,6.5738499 L-7.3241393,8.5658611 -8.9379699,9.1044084 -9.6027189,7.1123972 -7.9888883,6.5738499z" fill="rgb(255,255,255)" shaper:cutDepth="0.009" shaper:pathType="interior" stroke="rgb(0,0,0)" transform="matrix(1,0,0,-1,13.8167968,13.9925804)" vector-effect="non-scaling-stroke" /></svg>